<?xml version="1.0" encoding="UTF-8" standalone="no"?><svg xmlns="http://www.w3.org/2000/svg" xmlns:xlink="http://www.w3.org/1999/xlink" clip-rule="evenodd" stroke-miterlimit="10" viewBox="0 0 587 102"><desc>SVG generated by Keynote</desc><defs></defs><g transform="matrix(1.00, 0.00, -0.00, -1.00, 0.0, 102.0)"><image xlink:href="99C774A48769EF619C54848315D2DD6B.png" width="584.00" height="98.00" transform="matrix(1.00, 0.00, -0.00, -1.00, 2.0, 100.0)"></image><text xml:space="preserve" font-family="HelveticaNeue,Helvetica Neue" font-size="100.0" fill="#FEFFFF" transform="matrix(1.00, 0.00, -0.00, -1.00, -0.5, 23.8)">K</text><text xml:space="preserve" font-family="HelveticaNeue,Helvetica Neue" font-size="100.0" fill="#FEFFFF" transform="matrix(1.00, 0.00, -0.00, -1.00, 66.2, 23.8)">E</text><text xml:space="preserve" font-family="HelveticaNeue,Helvetica Neue" font-size="100.0" fill="#FEFFFF" transform="matrix(1.00, 0.00, -0.00, -1.00, 127.3, 23.8)">E</text><text xml:space="preserve" font-family="HelveticaNeue,Helvetica Neue" font-size="100.0" fill="#FEFFFF" transform="matrix(1.00, 0.00, -0.00, -1.00, 188.4, 23.8)">P</text><text xml:space="preserve" font-family="HelveticaNeue,Helvetica Neue" font-size="100.0" fill="#FEFFFF" transform="matrix(1.00, 0.00, -0.00, -1.00, 253.2, 23.8)"> </text><text xml:space="preserve" font-family="HelveticaNeue,Helvetica Neue" font-size="100.0" fill="#FEFFFF" transform="matrix(1.00, 0.00, -0.00, -1.00, 281.0, 23.8)">C</text><text xml:space="preserve" font-family="HelveticaNeue,Helvetica Neue" font-size="100.0" fill="#FEFFFF" transform="matrix(1.00, 0.00, -0.00, -1.00, 353.2, 23.8)">A</text><text xml:space="preserve" font-family="HelveticaNeue,Helvetica Neue" font-size="100.0" fill="#FEFFFF" transform="matrix(1.00, 0.00, -0.00, -1.00, 418.0, 23.8)">L</text><text xml:space="preserve" font-family="HelveticaNeue,Helvetica Neue" font-size="100.0" fill="#FEFFFF" transform="matrix(1.00, 0.00, -0.00, -1.00, 473.6, 23.8)">M</text><text xml:space="preserve" font-family="HelveticaNeue,Helvetica Neue" font-size="100.0" fill="#FEFFFF" transform="matrix(1.00, 0.00, -0.00, -1.00, 560.7, 23.8)">;</text></g></svg>