<?xml version="1.0" encoding="UTF-8" standalone="no"?><svg xmlns="http://www.w3.org/2000/svg" xmlns:xlink="http://www.w3.org/1999/xlink" clip-rule="evenodd" stroke-miterlimit="10" viewBox="0 0 485 102"><desc>SVG generated by Keynote</desc><defs></defs><g transform="matrix(1.00, 0.00, -0.00, -1.00, 0.0, 102.0)"><image xlink:href="97FF6C125B7DD8DCBE8FB99529AEFA9C.png" width="482.00" height="98.00" transform="matrix(1.00, 0.00, -0.00, -1.00, 2.0, 100.0)"></image><text xml:space="preserve" font-family="HelveticaNeue,Helvetica Neue" font-size="100.0" fill="#FEFFFF" transform="matrix(1.00, 0.00, -0.00, -1.00, 3.2, 23.8)">C</text><text xml:space="preserve" font-family="HelveticaNeue,Helvetica Neue" font-size="100.0" fill="#FEFFFF" transform="matrix(1.00, 0.00, -0.00, -1.00, 75.5, 23.8)">O</text><text xml:space="preserve" font-family="HelveticaNeue,Helvetica Neue" font-size="100.0" fill="#FEFFFF" transform="matrix(1.00, 0.00, -0.00, -1.00, 151.4, 23.8)">D</text><text xml:space="preserve" font-family="HelveticaNeue,Helvetica Neue" font-size="100.0" fill="#FEFFFF" transform="matrix(1.00, 0.00, -0.00, -1.00, 221.8, 23.8)">E</text><text xml:space="preserve" font-family="HelveticaNeue,Helvetica Neue" font-size="100.0" fill="#FEFFFF" transform="matrix(1.00, 0.00, -0.00, -1.00, 282.9, 23.8)"> </text><text xml:space="preserve" font-family="HelveticaNeue,Helvetica Neue" font-size="100.0" fill="#FEFFFF" transform="matrix(1.00, 0.00, -0.00, -1.00, 310.8, 23.8)">O</text><text xml:space="preserve" font-family="HelveticaNeue,Helvetica Neue" font-size="100.0" fill="#FEFFFF" transform="matrix(1.00, 0.00, -0.00, -1.00, 386.8, 23.8)">N</text><text xml:space="preserve" font-family="HelveticaNeue,Helvetica Neue" font-size="100.0" fill="#FEFFFF" transform="matrix(1.00, 0.00, -0.00, -1.00, 458.9, 23.8)">;</text></g></svg>