<?xml version="1.0" encoding="UTF-8" standalone="no"?><svg xmlns="http://www.w3.org/2000/svg" xmlns:xlink="http://www.w3.org/1999/xlink" clip-rule="evenodd" stroke-miterlimit="10" viewBox="0 0 99 98"><desc>SVG generated by Keynote</desc><defs></defs><g transform="matrix(1.00, 0.00, -0.00, -1.00, 0.0, 98.0)"><path d="M 83.7 82.9 C 102.4 64.3 102.4 34.1 83.7 15.5 C 64.9 -3.1 34.4 -3.1 15.6 15.5 C -3.2 34.1 -3.2 64.3 15.6 82.9 C 34.4 101.5 64.9 101.5 83.7 82.9 Z M 83.7 82.9 " fill="#52575F"></path><g><clipPath id="clip0x7face6a79d50"><path d="M 1.2 1.6 L 98.1 1.6 L 98.1 96.8 L 1.2 96.8 Z M 1.2 1.6 "></path></clipPath><g clip-path="url(#clip0x7face6a79d50)"><text xml:space="preserve" font-family="HelveticaNeue-Light,Helvetica Neue" font-size="24.0" fill="#FEFFFF" transform="matrix(1.00, 0.00, -0.00, -1.00, 29.0, 40.9)">N</text><text xml:space="preserve" font-family="HelveticaNeue-Light,Helvetica Neue" font-size="24.0" fill="#FEFFFF" transform="matrix(1.00, 0.00, -0.00, -1.00, 45.9, 40.9)">/</text><text xml:space="preserve" font-family="HelveticaNeue-Light,Helvetica Neue" font-size="24.0" fill="#FEFFFF" transform="matrix(1.00, 0.00, -0.00, -1.00, 53.8, 40.9)">D</text></g></g></g></svg>