<?xml version="1.0" encoding="UTF-8" standalone="no"?><svg xmlns="http://www.w3.org/2000/svg" xmlns:xlink="http://www.w3.org/1999/xlink" clip-rule="evenodd" stroke-miterlimit="10" viewBox="0 0 100 98"><desc>SVG generated by Keynote</desc><defs></defs><g transform="matrix(1.00, 0.00, -0.00, -1.00, 0.0, 98.0)"><path d="M 83.9 82.5 C 102.7 63.9 102.7 33.8 83.9 15.2 C 65.1 -3.4 34.7 -3.4 15.9 15.2 C -2.9 33.8 -2.9 63.9 15.9 82.5 C 34.7 101.1 65.1 101.1 83.9 82.5 Z M 83.9 82.5 " fill="#82C822"></path><g><clipPath id="clip0x7face5d171b0"><path d="M 1.4 1.2 L 98.4 1.2 L 98.4 96.5 L 1.4 96.5 Z M 1.4 1.2 "></path></clipPath><g clip-path="url(#clip0x7face5d171b0)"><text xml:space="preserve" font-family="HelveticaNeue-Light,Helvetica Neue" font-size="24.0" fill="#FEFFFF" transform="matrix(1.00, 0.00, -0.00, -1.00, 28.6, 40.5)">N</text><text xml:space="preserve" font-family="HelveticaNeue-Light,Helvetica Neue" font-size="24.0" fill="#FEFFFF" transform="matrix(1.00, 0.00, -0.00, -1.00, 45.4, 40.5)">/</text><text xml:space="preserve" font-family="HelveticaNeue-Light,Helvetica Neue" font-size="24.0" fill="#FEFFFF" transform="matrix(1.00, 0.00, -0.00, -1.00, 53.4, 40.5)">O</text></g></g></g></svg>