<?xml version="1.0" encoding="UTF-8" standalone="no"?><svg xmlns="http://www.w3.org/2000/svg" xmlns:xlink="http://www.w3.org/1999/xlink" clip-rule="evenodd" stroke-miterlimit="10" viewBox="0 0 1024 768"><desc>SVG generated by Keynote</desc><defs></defs><g transform="matrix(1.00, 0.00, -0.00, -1.00, 0.0, 768.0)"><path d="M 0.0 768.0 L 1024.0 768.0 L 1024.0 0.0 L 0.0 0.0 Z M 0.0 768.0 " fill="#FEFFFE"></path><path d="M 0.0 43.0 L 1024.0 43.0 L 1024.0 0.0 L 0.0 0.0 Z M -0.1 43.2 " fill="#594A82"></path><image xlink:href="../../A090BE2E-95F9-4314-9499-7D43D378904A/assets/91BAD228E2B2266AFF2B442A94F05DEB.png" width="278.00" height="30.00" transform="matrix(1.00, 0.00, -0.00, -1.00, 54.0, 34.0)"></image><g><clipPath id="clip0x7face6d31ce0"><path d="M -8.3 -7.4 L 1032.3 -7.4 L 1032.3 46.4 L -8.3 46.4 Z M -8.3 -7.4 "></path></clipPath><g clip-path="url(#clip0x7face6d31ce0)"><text xml:space="preserve" font-family="HelveticaNeue-LightItalic,Helvetica Neue" font-style="italic" font-size="25.0" fill="#FEFFFF" transform="matrix(1.00, 0.00, -0.00, -1.00, 57.9, 12.2)">V</text><text xml:space="preserve" font-family="HelveticaNeue-LightItalic,Helvetica Neue" font-style="italic" font-size="25.0" fill="#FEFFFF" transform="matrix(1.00, 0.00, -0.00, -1.00, 72.8, 12.2)">í</text><text xml:space="preserve" font-family="HelveticaNeue-LightItalic,Helvetica Neue" font-style="italic" font-size="25.0" fill="#FEFFFF" transform="matrix(1.00, 0.00, -0.00, -1.00, 77.4, 12.2)">c</text><text xml:space="preserve" font-family="HelveticaNeue-LightItalic,Helvetica Neue" font-style="italic" font-size="25.0" fill="#FEFFFF" transform="matrix(1.00, 0.00, -0.00, -1.00, 90.4, 12.2)">t</text><text xml:space="preserve" font-family="HelveticaNeue-LightItalic,Helvetica Neue" font-style="italic" font-size="25.0" fill="#FEFFFF" transform="matrix(1.00, 0.00, -0.00, -1.00, 97.8, 12.2)">o</text><text xml:space="preserve" font-family="HelveticaNeue-LightItalic,Helvetica Neue" font-style="italic" font-size="25.0" fill="#FEFFFF" transform="matrix(1.00, 0.00, -0.00, -1.00, 111.7, 12.2)">r</text><text xml:space="preserve" font-family="HelveticaNeue-LightItalic,Helvetica Neue" font-style="italic" font-size="25.0" fill="#FEFFFF" transform="matrix(1.00, 0.00, -0.00, -1.00, 119.5, 12.2)"> </text><text xml:space="preserve" font-family="HelveticaNeue-LightItalic,Helvetica Neue" font-style="italic" font-size="25.0" fill="#FEFFFF" transform="matrix(1.00, 0.00, -0.00, -1.00, 126.5, 12.2)">M</text><text xml:space="preserve" font-family="HelveticaNeue-LightItalic,Helvetica Neue" font-style="italic" font-size="25.0" fill="#FEFFFF" transform="matrix(1.00, 0.00, -0.00, -1.00, 147.8, 12.2)">o</text><text xml:space="preserve" font-family="HelveticaNeue-LightItalic,Helvetica Neue" font-style="italic" font-size="25.0" fill="#FEFFFF" transform="matrix(1.00, 0.00, -0.00, -1.00, 161.7, 12.2)">n</text><text xml:space="preserve" font-family="HelveticaNeue-LightItalic,Helvetica Neue" font-style="italic" font-size="25.0" fill="#FEFFFF" transform="matrix(1.00, 0.00, -0.00, -1.00, 175.1, 12.2)">s</text><text xml:space="preserve" font-family="HelveticaNeue-LightItalic,Helvetica Neue" font-style="italic" font-size="25.0" fill="#FEFFFF" transform="matrix(1.00, 0.00, -0.00, -1.00, 187.1, 12.2)">e</text><text xml:space="preserve" font-family="HelveticaNeue-LightItalic,Helvetica Neue" font-style="italic" font-size="25.0" fill="#FEFFFF" transform="matrix(1.00, 0.00, -0.00, -1.00, 200.1, 12.2)">r</text><text xml:space="preserve" font-family="HelveticaNeue-LightItalic,Helvetica Neue" font-style="italic" font-size="25.0" fill="#FEFFFF" transform="matrix(1.00, 0.00, -0.00, -1.00, 208.0, 12.2)">r</text><text xml:space="preserve" font-family="HelveticaNeue-LightItalic,Helvetica Neue" font-style="italic" font-size="25.0" fill="#FEFFFF" transform="matrix(1.00, 0.00, -0.00, -1.00, 215.9, 12.2)">a</text><text xml:space="preserve" font-family="HelveticaNeue-LightItalic,Helvetica Neue" font-style="italic" font-size="25.0" fill="#FEFFFF" transform="matrix(1.00, 0.00, -0.00, -1.00, 228.8, 12.2)">t</text><text xml:space="preserve" font-family="HelveticaNeue-LightItalic,Helvetica Neue" font-style="italic" font-size="25.0" fill="#FEFFFF" transform="matrix(1.00, 0.00, -0.00, -1.00, 236.2, 12.2)"> </text><text xml:space="preserve" font-family="HelveticaNeue-LightItalic,Helvetica Neue" font-style="italic" font-size="25.0" fill="#FEFFFF" transform="matrix(1.00, 0.00, -0.00, -1.00, 243.2, 12.2)">V</text><text xml:space="preserve" font-family="HelveticaNeue-LightItalic,Helvetica Neue" font-style="italic" font-size="25.0" fill="#FEFFFF" transform="matrix(1.00, 0.00, -0.00, -1.00, 258.2, 12.2)">i</text><text xml:space="preserve" font-family="HelveticaNeue-LightItalic,Helvetica Neue" font-style="italic" font-size="25.0" fill="#FEFFFF" transform="matrix(1.00, 0.00, -0.00, -1.00, 262.8, 12.2)">l</text><text xml:space="preserve" font-family="HelveticaNeue-LightItalic,Helvetica Neue" font-style="italic" font-size="25.0" fill="#FEFFFF" transform="matrix(1.00, 0.00, -0.00, -1.00, 267.4, 12.2)">l</text><text xml:space="preserve" font-family="HelveticaNeue-LightItalic,Helvetica Neue" font-style="italic" font-size="25.0" fill="#FEFFFF" transform="matrix(1.00, 0.00, -0.00, -1.00, 272.0, 12.2)">a</text><text xml:space="preserve" font-family="HelveticaNeue-LightItalic,Helvetica Neue" font-style="italic" font-size="25.0" fill="#FEFFFF" transform="matrix(1.00, 0.00, -0.00, -1.00, 285.0, 12.2)">t</text><text xml:space="preserve" font-family="HelveticaNeue-LightItalic,Helvetica Neue" font-style="italic" font-size="25.0" fill="#FEFFFF" transform="matrix(1.00, 0.00, -0.00, -1.00, 292.4, 12.2)">o</text><text xml:space="preserve" font-family="HelveticaNeue-LightItalic,Helvetica Neue" font-style="italic" font-size="25.0" fill="#FEFFFF" transform="matrix(1.00, 0.00, -0.00, -1.00, 306.3, 12.2)">r</text><text xml:space="preserve" font-family="HelveticaNeue-LightItalic,Helvetica Neue" font-style="italic" font-size="25.0" fill="#FEFFFF" transform="matrix(1.00, 0.00, -0.00, -1.00, 313.7, 12.2)">o</text></g></g><g><clipPath id="clip0x7face6d05430"><path d="M 81.5 682.5 L 943.0 682.5 L 943.0 84.5 L 81.5 84.5 Z M 81.5 682.5 "></path></clipPath><g clip-path="url(#clip0x7face6d05430)"><g><g><clipPath id="clip0x7face6d06fb0"><path d="M 81.0 84.0 L 943.0 84.0 L 943.0 683.0 L 81.0 683.0 Z M 81.0 84.0 "></path></clipPath><g clip-path="url(#clip0x7face6d06fb0)"><path d="M 226.1 681.0 L 369.2 681.0 L 369.2 581.8 L 226.1 581.8 Z M 226.1 681.0 " fill="#FEFFFE"></path><path d="M 369.2 681.0 L 512.2 681.0 L 512.2 581.8 L 369.2 581.8 Z M 369.2 681.0 " fill="#3DC4F0"></path><path d="M 512.2 681.0 L 655.3 681.0 L 655.3 581.8 L 512.2 581.8 Z M 512.2 681.0 " fill="#FE9032"></path><path d="M 655.3 681.0 L 798.4 681.0 L 798.4 581.8 L 655.3 581.8 Z M 655.3 681.0 " fill="#30AFBC"></path><path d="M 798.4 681.0 L 941.5 681.0 L 941.5 581.8 L 798.4 581.8 Z M 798.4 681.0 " fill="#E73617"></path><path d="M 83.0 581.8 L 226.1 581.8 L 226.1 482.7 L 83.0 482.7 Z M 83.0 581.8 " fill="#A4C639"></path><path d="M 226.1 581.8 L 369.2 581.8 L 369.2 482.7 L 226.1 482.7 Z M 226.1 581.8 " fill="#FEFFFE"></path><path d="M 798.4 581.8 L 941.5 581.8 L 941.5 482.7 L 798.4 482.7 Z M 798.4 581.8 " fill="#FEFFFE"></path><path d="M 83.0 482.7 L 226.1 482.7 L 226.1 383.5 L 83.0 383.5 Z M 83.0 482.7 " fill="#03A8E5"></path><path d="M 226.1 482.7 L 369.2 482.7 L 369.2 383.5 L 226.1 383.5 Z M 226.1 482.7 " fill="#FEFFFE"></path><path d="M 369.2 482.7 L 512.2 482.7 L 512.2 383.5 L 369.2 383.5 Z M 369.2 482.7 " fill="#FEFFFE"></path><path d="M 512.2 482.7 L 655.3 482.7 L 655.3 383.5 L 512.2 383.5 Z M 512.2 482.7 " fill="#FEFFFE"></path><path d="M 655.3 482.7 L 798.4 482.7 L 798.4 383.5 L 655.3 383.5 Z M 655.3 482.7 " fill="#FEFFFE"></path><path d="M 798.4 482.7 L 941.5 482.7 L 941.5 383.5 L 798.4 383.5 Z M 798.4 482.7 " fill="#FEFFFE"></path><path d="M 83.0 383.5 L 226.1 383.5 L 226.1 284.4 L 83.0 284.4 Z M 83.0 383.5 " fill="#FF6309"></path><path d="M 226.1 383.5 L 369.2 383.5 L 369.2 284.4 L 226.1 284.4 Z M 226.1 383.5 " fill="#FEFFFE"></path><path d="M 369.2 383.5 L 512.2 383.5 L 512.2 284.4 L 369.2 284.4 Z M 369.2 383.5 " fill="#FEFFFE"></path><path d="M 512.2 383.5 L 655.3 383.5 L 655.3 284.4 L 512.2 284.4 Z M 512.2 383.5 " fill="#FEFFFE"></path><path d="M 655.3 383.5 L 798.4 383.5 L 798.4 284.4 L 655.3 284.4 Z M 655.3 383.5 " fill="#FEFFFE"></path><path d="M 798.4 383.5 L 941.5 383.5 L 941.5 284.4 L 798.4 284.4 Z M 798.4 383.5 " fill="#FEFFFE"></path><path d="M 83.0 284.4 L 226.1 284.4 L 226.1 185.2 L 83.0 185.2 Z M 83.0 284.4 " fill="#AAAAAA"></path><path d="M 226.1 284.4 L 369.2 284.4 L 369.2 185.2 L 226.1 185.2 Z M 226.1 284.4 " fill="#FEFFFE"></path><path d="M 369.2 284.4 L 512.2 284.4 L 512.2 185.2 L 369.2 185.2 Z M 369.2 284.4 " fill="#FEFFFE"></path><path d="M 512.2 284.4 L 655.3 284.4 L 655.3 185.2 L 512.2 185.2 Z M 512.2 284.4 " fill="#FEFFFE"></path><path d="M 655.3 284.4 L 798.4 284.4 L 798.4 185.2 L 655.3 185.2 Z M 655.3 284.4 " fill="#FEFFFE"></path><path d="M 798.4 284.4 L 941.5 284.4 L 941.5 185.2 L 798.4 185.2 Z M 798.4 284.4 " fill="#FEFFFE"></path><path d="M 83.0 185.2 L 226.1 185.2 L 226.1 86.0 L 83.0 86.0 Z M 83.0 185.2 " fill="#221E1F"></path><path d="M 226.1 185.2 L 369.2 185.2 L 369.2 86.0 L 226.1 86.0 Z M 226.1 185.2 " fill="#FEFFFE"></path><path d="M 369.2 185.2 L 512.2 185.2 L 512.2 86.0 L 369.2 86.0 Z M 369.2 185.2 " fill="#FEFFFE"></path><path d="M 512.2 185.2 L 655.3 185.2 L 655.3 86.0 L 512.2 86.0 Z M 512.2 185.2 " fill="#FEFFFE"></path><path d="M 655.3 185.2 L 798.4 185.2 L 798.4 86.0 L 655.3 86.0 Z M 655.3 185.2 " fill="#FEFFFE"></path><path d="M 798.4 185.2 L 941.5 185.2 L 941.5 86.0 L 798.4 86.0 Z M 798.4 185.2 " fill="#FEFFFE"></path></g></g></g></g></g><g><clipPath id="clip0x7face6c73bc0"><path d="M 81.5 682.5 L 943.0 682.5 L 943.0 84.5 L 81.5 84.5 Z M 81.5 682.5 "></path></clipPath><g clip-path="url(#clip0x7face6c73bc0)"><path d="M 289.2 1.5 L 289.2 599.5 " fill="none" stroke="#FFFFFF" stroke-width="3.00" transform="matrix(1.00, 0.00, 0.00, -1.00, 80.0, 684.0)"></path><path d="M 432.2 1.5 L 432.2 599.5 " fill="none" stroke="#FFFFFF" stroke-width="3.00" transform="matrix(1.00, 0.00, 0.00, -1.00, 80.0, 684.0)"></path><path d="M 575.3 1.5 L 575.3 599.5 " fill="none" stroke="#FFFFFF" stroke-width="3.00" transform="matrix(1.00, 0.00, 0.00, -1.00, 80.0, 684.0)"></path><path d="M 718.4 1.5 L 718.4 599.5 " fill="none" stroke="#FFFFFF" stroke-width="3.00" transform="matrix(1.00, 0.00, 0.00, -1.00, 80.0, 684.0)"></path><path d="M 1.5 201.3 L 863.0 201.3 " fill="none" stroke="#FFFFFF" stroke-width="3.00" transform="matrix(1.00, 0.00, 0.00, -1.00, 80.0, 684.0)"></path><path d="M 1.5 300.5 L 863.0 300.5 " fill="none" stroke="#FFFFFF" stroke-width="3.00" transform="matrix(1.00, 0.00, 0.00, -1.00, 80.0, 684.0)"></path><path d="M 1.5 399.6 L 863.0 399.6 " fill="none" stroke="#FFFFFF" stroke-width="3.00" transform="matrix(1.00, 0.00, 0.00, -1.00, 80.0, 684.0)"></path><path d="M 1.5 498.8 L 863.0 498.8 " fill="none" stroke="#FFFFFF" stroke-width="3.00" transform="matrix(1.00, 0.00, 0.00, -1.00, 80.0, 684.0)"></path><path d="M 146.1 1.5 L 146.1 599.5 " fill="none" stroke="#FFFFFF" stroke-width="3.00" transform="matrix(1.00, 0.00, 0.00, -1.00, 80.0, 684.0)"></path><path d="M 1.5 102.2 L 863.0 102.2 " fill="none" stroke="#FFFFFF" stroke-width="3.00" transform="matrix(1.00, 0.00, 0.00, -1.00, 80.0, 684.0)"></path><path d="M 3.0 1.5 L 3.0 599.5 " fill="none" stroke="#FFFFFF" stroke-width="3.00" transform="matrix(1.00, 0.00, 0.00, -1.00, 80.0, 684.0)"></path><path d="M 861.5 1.5 L 861.5 599.5 " fill="none" stroke="#FFFFFF" stroke-width="3.00" transform="matrix(1.00, 0.00, 0.00, -1.00, 80.0, 684.0)"></path><path d="M 1.5 3.0 L 863.0 3.0 " fill="none" stroke="#FFFFFF" stroke-width="3.00" transform="matrix(1.00, 0.00, 0.00, -1.00, 80.0, 684.0)"></path><path d="M 1.5 598.0 L 863.0 598.0 " fill="none" stroke="#FFFFFF" stroke-width="3.00" transform="matrix(1.00, 0.00, 0.00, -1.00, 80.0, 684.0)"></path></g></g><text xml:space="preserve" font-family="HelveticaNeue-Light,Helvetica Neue" font-size="25.0" fill="#FEFFFF" transform="matrix(1.00, 0.00, -0.00, -1.00, 431.2, 12.3)">C</text><text xml:space="preserve" font-family="HelveticaNeue-Light,Helvetica Neue" font-size="25.0" fill="#FEFFFF" transform="matrix(1.00, 0.00, -0.00, -1.00, 448.8, 12.3)">o</text><text xml:space="preserve" font-family="HelveticaNeue-Light,Helvetica Neue" font-size="25.0" fill="#FEFFFF" transform="matrix(1.00, 0.00, -0.00, -1.00, 462.7, 12.3)">m</text><text xml:space="preserve" font-family="HelveticaNeue-Light,Helvetica Neue" font-size="25.0" fill="#FEFFFF" transform="matrix(1.00, 0.00, -0.00, -1.00, 483.5, 12.3)">p</text><text xml:space="preserve" font-family="HelveticaNeue-Light,Helvetica Neue" font-size="25.0" fill="#FEFFFF" transform="matrix(1.00, 0.00, -0.00, -1.00, 497.9, 12.3)">a</text><text xml:space="preserve" font-family="HelveticaNeue-Light,Helvetica Neue" font-size="25.0" fill="#FEFFFF" transform="matrix(1.00, 0.00, -0.00, -1.00, 510.9, 12.3)">t</text><text xml:space="preserve" font-family="HelveticaNeue-Light,Helvetica Neue" font-size="25.0" fill="#FEFFFF" transform="matrix(1.00, 0.00, -0.00, -1.00, 518.3, 12.3)">i</text><text xml:space="preserve" font-family="HelveticaNeue-Light,Helvetica Neue" font-size="25.0" fill="#FEFFFF" transform="matrix(1.00, 0.00, -0.00, -1.00, 522.9, 12.3)">b</text><text xml:space="preserve" font-family="HelveticaNeue-Light,Helvetica Neue" font-size="25.0" fill="#FEFFFF" transform="matrix(1.00, 0.00, -0.00, -1.00, 537.2, 12.3)">i</text><text xml:space="preserve" font-family="HelveticaNeue-Light,Helvetica Neue" font-size="25.0" fill="#FEFFFF" transform="matrix(1.00, 0.00, -0.00, -1.00, 541.9, 12.3)">l</text><text xml:space="preserve" font-family="HelveticaNeue-Light,Helvetica Neue" font-size="25.0" fill="#FEFFFF" transform="matrix(1.00, 0.00, -0.00, -1.00, 546.5, 12.3)">i</text><text xml:space="preserve" font-family="HelveticaNeue-Light,Helvetica Neue" font-size="25.0" fill="#FEFFFF" transform="matrix(1.00, 0.00, -0.00, -1.00, 551.1, 12.3)">d</text><text xml:space="preserve" font-family="HelveticaNeue-Light,Helvetica Neue" font-size="25.0" fill="#FEFFFF" transform="matrix(1.00, 0.00, -0.00, -1.00, 565.5, 12.3)">a</text><text xml:space="preserve" font-family="HelveticaNeue-Light,Helvetica Neue" font-size="25.0" fill="#FEFFFF" transform="matrix(1.00, 0.00, -0.00, -1.00, 578.4, 12.3)">d</text><g><clipPath id="clip0x7face6832650"><path d="M 114.0 581.0 L 195.0 581.0 L 195.0 485.0 L 114.0 485.0 Z M 114.0 581.0 "></path></clipPath><g clip-path="url(#clip0x7face6832650)"><image xlink:href="../../A090BE2E-95F9-4314-9499-7D43D378904A/assets/A0830041466A2A101748D7B003C5A175.png" width="1024.00" height="1218.00" transform="matrix(0.08, 0.00, -0.00, -0.08, 114.0, 581.0)"></image></g></g><g><clipPath id="clip0x7face6cfa720"><path d="M 228.0 680.0 L 367.0 680.0 L 367.0 584.0 L 228.0 584.0 Z M 228.1 680.4 "></path></clipPath><g clip-path="url(#clip0x7face6cfa720)"><image xlink:href="../../A090BE2E-95F9-4314-9499-7D43D378904A/assets/260150EA14918004194E8D90D4DD9EE9.png" width="500.00" height="256.00" transform="matrix(0.37, 0.00, -0.00, -0.37, 204.5, 679.9)"></image></g></g><image xlink:href="../../A090BE2E-95F9-4314-9499-7D43D378904A/assets/B009A60F35D9AE6C20020D01067B9693.png" width="1121.00" height="1229.00" transform="matrix(0.08, 0.00, -0.00, -0.08, 110.5, 482.3)"></image><image xlink:href="../../A090BE2E-95F9-4314-9499-7D43D378904A/assets/C54ED30D99804DB01F04EEDE9CCFB6D8.png" width="256.00" height="256.00" transform="matrix(0.38, 0.00, -0.00, -0.38, 106.3, 383.5)"></image><image xlink:href="../../A090BE2E-95F9-4314-9499-7D43D378904A/assets/80ACD64AA65D9D189469D1E2519EAEE5.png" width="483.00" height="600.00" transform="matrix(0.16, 0.00, -0.00, -0.16, 115.7, 283.8)"></image><image xlink:href="../../A090BE2E-95F9-4314-9499-7D43D378904A/assets/80ACD64AA65D9D189469D1E2519EAEE5.png" width="483.00" height="600.00" transform="matrix(0.16, 0.00, -0.00, -0.16, 115.7, 184.9)"></image><g><clipPath id="clip0x7face6cf5d90"><path d="M 394.0 680.0 L 485.0 680.0 L 485.0 584.0 L 394.0 584.0 Z M 394.0 679.9 "></path></clipPath><g clip-path="url(#clip0x7face6cf5d90)"><image xlink:href="../../A090BE2E-95F9-4314-9499-7D43D378904A/assets/4C22001BC4EE8CC1DCD77242152C8FFA.png" width="2034.00" height="2150.00" transform="matrix(0.04, 0.00, -0.00, -0.04, 394.0, 679.9)"></image></g></g><g><clipPath id="clip0x7face68345f0"><path d="M 534.0 680.0 L 630.0 680.0 L 630.0 584.0 L 534.0 584.0 Z M 533.5 679.9 "></path></clipPath><g clip-path="url(#clip0x7face68345f0)"><image xlink:href="../../A090BE2E-95F9-4314-9499-7D43D378904A/assets/7CAA9E16F974F2CCA92DFFBA58C4598E.png" width="512.00" height="512.00" transform="matrix(0.19, 0.00, -0.00, -0.19, 533.5, 679.9)"></image></g></g><image xlink:href="../../A090BE2E-95F9-4314-9499-7D43D378904A/assets/05C8FB418326275566D25FB1B2B1FB62.png" width="513.00" height="512.00" transform="matrix(0.19, 0.00, -0.00, -0.19, 678.0, 680.9)"></image><image xlink:href="../../A090BE2E-95F9-4314-9499-7D43D378904A/assets/837B5C21346A140F283A130E004B2944.png" width="256.00" height="256.00" transform="matrix(0.38, 0.00, -0.00, -0.38, 822.8, 680.9)"></image><image xlink:href="../../5438D884-80C0-49E6-A6EB-3A68F8810314/assets/6344586D9005155BB9C7D5E21C9FC93A.png" width="1000.00" height="1000.00" transform="matrix(0.10, 0.00, -0.00, -0.10, 249.4, 581.0)"></image><image xlink:href="../../5438D884-80C0-49E6-A6EB-3A68F8810314/assets/518D01FC6EA6849E78331F94CCC52349.png" width="2000.00" height="2000.00" transform="matrix(0.05, 0.00, -0.00, -0.05, 822.8, 581.0)"></image><text xml:space="preserve" font-family="HelveticaNeue-Light,Helvetica Neue" font-size="24.0" fill="#AAAAAA" transform="matrix(1.00, 0.00, -0.00, -1.00, 132.1, 227.1)">M</text><text xml:space="preserve" font-family="HelveticaNeue-Light,Helvetica Neue" font-size="24.0" fill="#AAAAAA" transform="matrix(1.00, 0.00, -0.00, -1.00, 151.8, 227.1)">a</text><text xml:space="preserve" font-family="HelveticaNeue-Light,Helvetica Neue" font-size="24.0" fill="#AAAAAA" transform="matrix(1.00, 0.00, -0.00, -1.00, 164.3, 227.1)">c</text><text xml:space="preserve" font-family="HelveticaNeue-Light,Helvetica Neue" font-size="24.0" fill="#221E1F" transform="matrix(1.00, 0.00, -0.00, -1.00, 135.7, 127.7)">i</text><text xml:space="preserve" font-family="HelveticaNeue-Light,Helvetica Neue" font-size="24.0" fill="#221E1F" transform="matrix(1.00, 0.00, -0.00, -1.00, 140.2, 127.7)">O</text><text xml:space="preserve" font-family="HelveticaNeue-Light,Helvetica Neue" font-size="24.0" fill="#221E1F" transform="matrix(1.00, 0.00, -0.00, -1.00, 158.0, 127.7)">S</text><image xlink:href="../../5438D884-80C0-49E6-A6EB-3A68F8810314/assets/518D01FC6EA6849E78331F94CCC52349.png" width="2000.00" height="2000.00" transform="matrix(0.05, 0.00, -0.00, -0.05, 822.8, 184.9)"></image><image xlink:href="../../5438D884-80C0-49E6-A6EB-3A68F8810314/assets/518D01FC6EA6849E78331F94CCC52349.png" width="2000.00" height="2000.00" transform="matrix(0.05, 0.00, -0.00, -0.05, 678.0, 482.3)"></image><path d="M 760.2 567.0 C 779.0 548.4 779.0 518.3 760.2 499.7 C 741.4 481.1 710.9 481.1 692.1 499.7 C 673.3 518.3 673.3 548.4 692.1 567.0 C 710.9 585.6 741.4 585.6 760.2 567.0 Z M 760.2 567.0 " fill="#52575F"></path><g><clipPath id="clip0x7face6ceeaf0"><path d="M 677.7 485.7 L 774.6 485.7 L 774.6 581.0 L 677.7 581.0 Z M 677.7 485.7 "></path></clipPath><g clip-path="url(#clip0x7face6ceeaf0)"><text xml:space="preserve" font-family="HelveticaNeue-Light,Helvetica Neue" font-size="24.0" fill="#FEFFFF" transform="matrix(1.00, 0.00, -0.00, -1.00, 705.5, 525.0)">N</text><text xml:space="preserve" font-family="HelveticaNeue-Light,Helvetica Neue" font-size="24.0" fill="#FEFFFF" transform="matrix(1.00, 0.00, -0.00, -1.00, 722.4, 525.0)">/</text><text xml:space="preserve" font-family="HelveticaNeue-Light,Helvetica Neue" font-size="24.0" fill="#FEFFFF" transform="matrix(1.00, 0.00, -0.00, -1.00, 730.4, 525.0)">D</text></g></g><path d="M 473.7 567.2 C 492.4 548.6 492.4 518.5 473.7 499.9 C 454.9 481.3 424.4 481.3 405.6 499.9 C 386.8 518.5 386.8 548.6 405.6 567.2 C 424.4 585.8 454.9 585.8 473.7 567.2 Z M 473.7 567.2 " fill="#52575F"></path><g><clipPath id="clip0x7face6cf13f0"><path d="M 391.2 485.9 L 488.1 485.9 L 488.1 581.2 L 391.2 581.2 Z M 391.2 485.9 "></path></clipPath><g clip-path="url(#clip0x7face6cf13f0)"><text xml:space="preserve" font-family="HelveticaNeue-Light,Helvetica Neue" font-size="24.0" fill="#FEFFFF" transform="matrix(1.00, 0.00, -0.00, -1.00, 419.0, 525.2)">N</text><text xml:space="preserve" font-family="HelveticaNeue-Light,Helvetica Neue" font-size="24.0" fill="#FEFFFF" transform="matrix(1.00, 0.00, -0.00, -1.00, 435.9, 525.2)">/</text><text xml:space="preserve" font-family="HelveticaNeue-Light,Helvetica Neue" font-size="24.0" fill="#FEFFFF" transform="matrix(1.00, 0.00, -0.00, -1.00, 443.8, 525.2)">D</text></g></g><path d="M 473.7 268.9 C 492.4 250.3 492.4 220.1 473.7 201.5 C 454.9 182.9 424.4 182.9 405.6 201.5 C 386.8 220.1 386.8 250.3 405.6 268.9 C 424.4 287.5 454.9 287.5 473.7 268.9 Z M 473.7 268.9 " fill="#52575F"></path><g><clipPath id="clip0x7face6ce7c80"><path d="M 391.2 187.6 L 488.1 187.6 L 488.1 282.8 L 391.2 282.8 Z M 391.2 187.6 "></path></clipPath><g clip-path="url(#clip0x7face6ce7c80)"><text xml:space="preserve" font-family="HelveticaNeue-Light,Helvetica Neue" font-size="24.0" fill="#FEFFFF" transform="matrix(1.00, 0.00, -0.00, -1.00, 419.0, 226.9)">N</text><text xml:space="preserve" font-family="HelveticaNeue-Light,Helvetica Neue" font-size="24.0" fill="#FEFFFF" transform="matrix(1.00, 0.00, -0.00, -1.00, 435.9, 226.9)">/</text><text xml:space="preserve" font-family="HelveticaNeue-Light,Helvetica Neue" font-size="24.0" fill="#FEFFFF" transform="matrix(1.00, 0.00, -0.00, -1.00, 443.8, 226.9)">D</text></g></g><path d="M 473.7 170.5 C 492.4 151.9 492.4 121.7 473.7 103.1 C 454.9 84.5 424.4 84.5 405.6 103.1 C 386.8 121.7 386.8 151.9 405.6 170.5 C 424.4 189.1 454.9 189.1 473.7 170.5 Z M 473.7 170.5 " fill="#52575F"></path><g><clipPath id="clip0x7face6cea490"><path d="M 391.2 89.2 L 488.1 89.2 L 488.1 184.4 L 391.2 184.4 Z M 391.2 89.2 "></path></clipPath><g clip-path="url(#clip0x7face6cea490)"><text xml:space="preserve" font-family="HelveticaNeue-Light,Helvetica Neue" font-size="24.0" fill="#FEFFFF" transform="matrix(1.00, 0.00, -0.00, -1.00, 419.0, 128.4)">N</text><text xml:space="preserve" font-family="HelveticaNeue-Light,Helvetica Neue" font-size="24.0" fill="#FEFFFF" transform="matrix(1.00, 0.00, -0.00, -1.00, 435.9, 128.4)">/</text><text xml:space="preserve" font-family="HelveticaNeue-Light,Helvetica Neue" font-size="24.0" fill="#FEFFFF" transform="matrix(1.00, 0.00, -0.00, -1.00, 443.8, 128.4)">D</text></g></g><path d="M 615.7 170.5 C 634.5 151.9 634.5 121.7 615.7 103.1 C 596.9 84.5 566.4 84.5 547.6 103.1 C 528.8 121.7 528.8 151.9 547.6 170.5 C 566.4 189.1 596.9 189.1 615.7 170.5 Z M 615.7 170.5 " fill="#52575F"></path><g><clipPath id="clip0x7face6ceccc0"><path d="M 533.2 89.2 L 630.1 89.2 L 630.1 184.4 L 533.2 184.4 Z M 533.2 89.2 "></path></clipPath><g clip-path="url(#clip0x7face6ceccc0)"><text xml:space="preserve" font-family="HelveticaNeue-Light,Helvetica Neue" font-size="24.0" fill="#FEFFFF" transform="matrix(1.00, 0.00, -0.00, -1.00, 561.0, 128.4)">N</text><text xml:space="preserve" font-family="HelveticaNeue-Light,Helvetica Neue" font-size="24.0" fill="#FEFFFF" transform="matrix(1.00, 0.00, -0.00, -1.00, 577.9, 128.4)">/</text><text xml:space="preserve" font-family="HelveticaNeue-Light,Helvetica Neue" font-size="24.0" fill="#FEFFFF" transform="matrix(1.00, 0.00, -0.00, -1.00, 585.9, 128.4)">D</text></g></g><path d="M 331.5 369.2 C 350.3 350.6 350.3 320.4 331.5 301.8 C 312.7 283.2 282.3 283.2 263.5 301.8 C 244.7 320.4 244.7 350.6 263.5 369.2 C 282.3 387.8 312.7 387.8 331.5 369.2 Z M 331.5 369.2 " fill="#82C822"></path><g><clipPath id="clip0x7face6ce6390"><path d="M 249.0 287.9 L 346.0 287.9 L 346.0 383.1 L 249.0 383.1 Z M 249.0 287.9 "></path></clipPath><g clip-path="url(#clip0x7face6ce6390)"><text xml:space="preserve" font-family="HelveticaNeue-Light,Helvetica Neue" font-size="24.0" fill="#FEFFFF" transform="matrix(1.00, 0.00, -0.00, -1.00, 276.2, 327.2)">N</text><text xml:space="preserve" font-family="HelveticaNeue-Light,Helvetica Neue" font-size="24.0" fill="#FEFFFF" transform="matrix(1.00, 0.00, -0.00, -1.00, 293.0, 327.2)">/</text><text xml:space="preserve" font-family="HelveticaNeue-Light,Helvetica Neue" font-size="24.0" fill="#FEFFFF" transform="matrix(1.00, 0.00, -0.00, -1.00, 301.0, 327.2)">O</text></g></g><path d="M 615.7 369.2 C 634.5 350.6 634.5 320.4 615.7 301.8 C 596.9 283.2 566.4 283.2 547.6 301.8 C 528.8 320.4 528.8 350.6 547.6 369.2 C 566.4 387.8 596.9 387.8 615.7 369.2 Z M 615.7 369.2 " fill="#82C822"></path><g><clipPath id="clip0x7face683d920"><path d="M 533.2 287.9 L 630.1 287.9 L 630.1 383.1 L 533.2 383.1 Z M 533.2 287.9 "></path></clipPath><g clip-path="url(#clip0x7face683d920)"><text xml:space="preserve" font-family="HelveticaNeue-Light,Helvetica Neue" font-size="24.0" fill="#FEFFFF" transform="matrix(1.00, 0.00, -0.00, -1.00, 560.3, 327.2)">N</text><text xml:space="preserve" font-family="HelveticaNeue-Light,Helvetica Neue" font-size="24.0" fill="#FEFFFF" transform="matrix(1.00, 0.00, -0.00, -1.00, 577.2, 327.2)">/</text><text xml:space="preserve" font-family="HelveticaNeue-Light,Helvetica Neue" font-size="24.0" fill="#FEFFFF" transform="matrix(1.00, 0.00, -0.00, -1.00, 585.2, 327.2)">O</text></g></g><path d="M 473.7 368.1 C 492.4 349.5 492.4 319.4 473.7 300.8 C 454.9 282.2 424.4 282.2 405.6 300.8 C 386.8 319.4 386.8 349.5 405.6 368.1 C 424.4 386.7 454.9 386.7 473.7 368.1 Z M 473.7 368.1 " fill="#82C822"></path><g><clipPath id="clip0x7face6840170"><path d="M 391.2 286.8 L 488.1 286.8 L 488.1 382.1 L 391.2 382.1 Z M 391.2 286.8 "></path></clipPath><g clip-path="url(#clip0x7face6840170)"><text xml:space="preserve" font-family="HelveticaNeue-Light,Helvetica Neue" font-size="24.0" fill="#FEFFFF" transform="matrix(1.00, 0.00, -0.00, -1.00, 418.3, 326.1)">N</text><text xml:space="preserve" font-family="HelveticaNeue-Light,Helvetica Neue" font-size="24.0" fill="#FEFFFF" transform="matrix(1.00, 0.00, -0.00, -1.00, 435.2, 326.1)">/</text><text xml:space="preserve" font-family="HelveticaNeue-Light,Helvetica Neue" font-size="24.0" fill="#FEFFFF" transform="matrix(1.00, 0.00, -0.00, -1.00, 443.2, 326.1)">O</text></g></g><path d="M 760.4 369.2 C 779.2 350.6 779.2 320.4 760.4 301.8 C 741.6 283.2 711.1 283.2 692.3 301.8 C 673.5 320.4 673.5 350.6 692.3 369.2 C 711.1 387.8 741.6 387.8 760.4 369.2 Z M 760.4 369.2 " fill="#82C822"></path><g><clipPath id="clip0x7face68429c0"><path d="M 677.9 287.9 L 774.8 287.9 L 774.8 383.1 L 677.9 383.1 Z M 677.9 287.9 "></path></clipPath><g clip-path="url(#clip0x7face68429c0)"><text xml:space="preserve" font-family="HelveticaNeue-Light,Helvetica Neue" font-size="24.0" fill="#FEFFFF" transform="matrix(1.00, 0.00, -0.00, -1.00, 705.0, 327.2)">N</text><text xml:space="preserve" font-family="HelveticaNeue-Light,Helvetica Neue" font-size="24.0" fill="#FEFFFF" transform="matrix(1.00, 0.00, -0.00, -1.00, 721.9, 327.2)">/</text><text xml:space="preserve" font-family="HelveticaNeue-Light,Helvetica Neue" font-size="24.0" fill="#FEFFFF" transform="matrix(1.00, 0.00, -0.00, -1.00, 729.9, 327.2)">O</text></g></g><path d="M 904.9 368.5 C 923.7 349.9 923.7 319.8 904.9 301.2 C 886.1 282.6 855.7 282.6 836.9 301.2 C 818.1 319.8 818.1 349.9 836.9 368.5 C 855.7 387.1 886.1 387.1 904.9 368.5 Z M 904.9 368.5 " fill="#82C822"></path><g><clipPath id="clip0x7face6845210"><path d="M 822.4 287.2 L 919.4 287.2 L 919.4 382.5 L 822.4 382.5 Z M 822.4 287.2 "></path></clipPath><g clip-path="url(#clip0x7face6845210)"><text xml:space="preserve" font-family="HelveticaNeue-Light,Helvetica Neue" font-size="24.0" fill="#FEFFFF" transform="matrix(1.00, 0.00, -0.00, -1.00, 849.6, 326.5)">N</text><text xml:space="preserve" font-family="HelveticaNeue-Light,Helvetica Neue" font-size="24.0" fill="#FEFFFF" transform="matrix(1.00, 0.00, -0.00, -1.00, 866.4, 326.5)">/</text><text xml:space="preserve" font-family="HelveticaNeue-Light,Helvetica Neue" font-size="24.0" fill="#FEFFFF" transform="matrix(1.00, 0.00, -0.00, -1.00, 874.4, 326.5)">O</text></g></g><image xlink:href="../../5438D884-80C0-49E6-A6EB-3A68F8810314/assets/6344586D9005155BB9C7D5E21C9FC93A.png" width="1000.00" height="1000.00" transform="matrix(0.10, 0.00, -0.00, -0.10, 533.5, 581.0)"></image><image xlink:href="../../5438D884-80C0-49E6-A6EB-3A68F8810314/assets/6344586D9005155BB9C7D5E21C9FC93A.png" width="1000.00" height="1000.00" transform="matrix(0.10, 0.00, -0.00, -0.10, 249.5, 482.4)"></image><image xlink:href="../../5438D884-80C0-49E6-A6EB-3A68F8810314/assets/6344586D9005155BB9C7D5E21C9FC93A.png" width="1000.00" height="1000.00" transform="matrix(0.10, 0.00, -0.00, -0.10, 392.3, 481.4)"></image><image xlink:href="../../5438D884-80C0-49E6-A6EB-3A68F8810314/assets/6344586D9005155BB9C7D5E21C9FC93A.png" width="1000.00" height="1000.00" transform="matrix(0.10, 0.00, -0.00, -0.10, 533.5, 480.5)"></image><image xlink:href="../../5438D884-80C0-49E6-A6EB-3A68F8810314/assets/6344586D9005155BB9C7D5E21C9FC93A.png" width="1000.00" height="1000.00" transform="matrix(0.10, 0.00, -0.00, -0.10, 822.8, 482.3)"></image><image xlink:href="../../5438D884-80C0-49E6-A6EB-3A68F8810314/assets/6344586D9005155BB9C7D5E21C9FC93A.png" width="1000.00" height="1000.00" transform="matrix(0.10, 0.00, -0.00, -0.10, 249.5, 284.4)"></image><image xlink:href="../../5438D884-80C0-49E6-A6EB-3A68F8810314/assets/6344586D9005155BB9C7D5E21C9FC93A.png" width="1000.00" height="1000.00" transform="matrix(0.10, 0.00, -0.00, -0.10, 533.5, 284.4)"></image><image xlink:href="../../5438D884-80C0-49E6-A6EB-3A68F8810314/assets/6344586D9005155BB9C7D5E21C9FC93A.png" width="1000.00" height="1000.00" transform="matrix(0.10, 0.00, -0.00, -0.10, 678.2, 284.4)"></image><image xlink:href="../../5438D884-80C0-49E6-A6EB-3A68F8810314/assets/6344586D9005155BB9C7D5E21C9FC93A.png" width="1000.00" height="1000.00" transform="matrix(0.10, 0.00, -0.00, -0.10, 822.8, 284.4)"></image><image xlink:href="../../5438D884-80C0-49E6-A6EB-3A68F8810314/assets/6344586D9005155BB9C7D5E21C9FC93A.png" width="1000.00" height="1000.00" transform="matrix(0.10, 0.00, -0.00, -0.10, 249.5, 184.4)"></image><image xlink:href="../../5438D884-80C0-49E6-A6EB-3A68F8810314/assets/6344586D9005155BB9C7D5E21C9FC93A.png" width="1000.00" height="1000.00" transform="matrix(0.10, 0.00, -0.00, -0.10, 678.1, 184.2)"></image><g opacity="0.75"><g><clipPath id="clip0x7face684c810"><path d="M 0.0 0.0 L 1024.0 0.0 L 1024.0 768.0 L 0.0 768.0 Z M 0.0 0.0 "></path></clipPath><g clip-path="url(#clip0x7face684c810)"><path d="M 20.0 719.0 L 1003.0 719.0 L 1003.0 53.0 L 20.0 53.0 Z M 20.4 719.3 " fill="#FEFFFE"></path></g></g></g><image xlink:href="../../944E28F3-ED2C-4497-9D18-6E5CEBBAF1E8/assets/2E7622AA2527A006CB64A97E74DB847E.png" width="157.00" height="30.00" transform="matrix(1.00, 0.00, -0.00, -1.00, 834.0, 739.0)"></image><text xml:space="preserve" font-family="HelveticaNeue-LightItalic,Helvetica Neue" font-style="italic" font-size="25.0" fill="#221E1F" transform="matrix(1.00, 0.00, -0.00, -1.00, 838.6, 717.3)">v</text><text xml:space="preserve" font-family="HelveticaNeue-LightItalic,Helvetica Neue" font-style="italic" font-size="25.0" fill="#221E1F" transform="matrix(1.00, 0.00, -0.00, -1.00, 850.2, 717.3)">i</text><text xml:space="preserve" font-family="HelveticaNeue-LightItalic,Helvetica Neue" font-style="italic" font-size="25.0" fill="#221E1F" transform="matrix(1.00, 0.00, -0.00, -1.00, 854.8, 717.3)">c</text><text xml:space="preserve" font-family="HelveticaNeue-LightItalic,Helvetica Neue" font-style="italic" font-size="25.0" fill="#221E1F" transform="matrix(1.00, 0.00, -0.00, -1.00, 867.8, 717.3)">t</text><text xml:space="preserve" font-family="HelveticaNeue-LightItalic,Helvetica Neue" font-style="italic" font-size="25.0" fill="#221E1F" transform="matrix(1.00, 0.00, -0.00, -1.00, 875.2, 717.3)">o</text><text xml:space="preserve" font-family="HelveticaNeue-LightItalic,Helvetica Neue" font-style="italic" font-size="25.0" fill="#221E1F" transform="matrix(1.00, 0.00, -0.00, -1.00, 889.1, 717.3)">r</text><text xml:space="preserve" font-family="HelveticaNeue-LightItalic,Helvetica Neue" font-style="italic" font-size="25.0" fill="#221E1F" transform="matrix(1.00, 0.00, -0.00, -1.00, 897.0, 717.3)">1</text><text xml:space="preserve" font-family="HelveticaNeue-LightItalic,Helvetica Neue" font-style="italic" font-size="25.0" fill="#221E1F" transform="matrix(1.00, 0.00, -0.00, -1.00, 910.9, 717.3)">9</text><text xml:space="preserve" font-family="HelveticaNeue-LightItalic,Helvetica Neue" font-style="italic" font-size="25.0" fill="#221E1F" transform="matrix(1.00, 0.00, -0.00, -1.00, 924.8, 717.3)">9</text><text xml:space="preserve" font-family="HelveticaNeue-LightItalic,Helvetica Neue" font-style="italic" font-size="25.0" fill="#221E1F" transform="matrix(1.00, 0.00, -0.00, -1.00, 938.7, 717.3)">5</text><text xml:space="preserve" font-family="HelveticaNeue-LightItalic,Helvetica Neue" font-style="italic" font-size="25.0" fill="#221E1F" transform="matrix(1.00, 0.00, -0.00, -1.00, 952.6, 717.3)">m</text><text xml:space="preserve" font-family="HelveticaNeue-LightItalic,Helvetica Neue" font-style="italic" font-size="25.0" fill="#221E1F" transform="matrix(1.00, 0.00, -0.00, -1.00, 973.4, 717.3)">v</text><image xlink:href="../../944E28F3-ED2C-4497-9D18-6E5CEBBAF1E8/assets/75C0573027F9E8D34E53FD4776E028DA.png" width="53.00" height="53.00" transform="matrix(1.00, 0.00, -0.00, -1.00, 789.4, 751.3)" opacity="0.50"></image><image xlink:href="../../944E28F3-ED2C-4497-9D18-6E5CEBBAF1E8/assets/5F9295D17BC12B7DA0FF5A21FA2A82F8.png" width="1024.00" height="1024.00" transform="matrix(0.04, 0.00, -0.00, -0.04, 794.4, 748.3)"></image><path d="M 356.0 561.0 L 806.0 561.0 L 806.0 111.0 L 356.0 111.0 Z M 356.0 561.0 " fill="#000000" fill-opacity="0.00"></path><g><image xlink:href="../../5438D884-80C0-49E6-A6EB-3A68F8810314/assets/5CA2FC2BF8E22157841F0AAC7B74BB74.png" width="200.00" height="240.00" transform="matrix(1.00, 0.00, -0.00, -1.00, 396.0, 561.0)"></image><g><clipPath id="clip0x7face6858a00"><path d="M 0.0 0.0 L 1024.0 0.0 L 1024.0 768.0 L 0.0 768.0 Z M 0.0 0.0 "></path></clipPath><g clip-path="url(#clip0x7face6858a00)"><g><g><clipPath id="clip0x7face685a780"><path d="M -17.0 -17.0 L 1040.0 -17.0 L 1040.0 785.0 L -17.0 785.0 Z M -17.0 -17.0 "></path></clipPath><g clip-path="url(#clip0x7face685a780)"><path d="M 582.0 334.0 L 582.0 544.0 C 514.8 544.0 451.6 511.8 412.1 457.4 Z M 582.0 334.0 " fill="#CB3232"></path></g></g></g></g></g><image xlink:href="F498EC1FF030798EF09D3A1D84F6610B.png" width="508.00" height="479.00" transform="matrix(1.00, 0.00, -0.00, -1.00, 327.0, 561.0)"></image><g><clipPath id="clip0x7face6ccc5d0"><path d="M 0.0 0.0 L 1024.0 0.0 L 1024.0 768.0 L 0.0 768.0 Z M 0.0 0.0 "></path></clipPath><g clip-path="url(#clip0x7face6ccc5d0)"><g><g><clipPath id="clip0x7face6ccdf50"><path d="M -17.0 -17.0 L 1040.0 -17.0 L 1040.0 785.0 L -17.0 785.0 Z M -17.0 -17.0 "></path></clipPath><g clip-path="url(#clip0x7face6ccdf50)"><path d="M 582.0 334.0 L 412.1 457.4 C 343.9 363.6 364.7 232.3 458.6 164.1 C 552.4 95.9 683.7 116.7 751.9 210.6 C 820.1 304.4 799.3 435.7 705.4 503.9 C 669.6 530.0 626.3 544.0 582.0 544.0 Z M 582.0 334.0 " fill="#82C822"></path></g></g></g></g></g></g><g><image xlink:href="../../5438D884-80C0-49E6-A6EB-3A68F8810314/assets/A78286E6164BB75EBDC37765CA9E4C9A.png" width="56.00" height="26.00" transform="matrix(1.00, 0.00, -0.00, -1.00, 490.0, 470.0)"></image><g><clipPath id="clip0x7face6cd0e30"><path d="M 487.0 439.0 L 549.0 439.0 L 549.0 477.0 L 487.0 477.0 Z M 487.0 439.0 "></path></clipPath><g clip-path="url(#clip0x7face6cd0e30)"><text xml:space="preserve" font-family="HelveticaNeue-Light,Helvetica Neue" font-size="28.0" fill="#FEFFFF" transform="matrix(1.00, 0.00, -0.00, -1.00, 489.7, 448.7)">1</text><text xml:space="preserve" font-family="HelveticaNeue-Light,Helvetica Neue" font-size="28.0" fill="#FEFFFF" transform="matrix(1.00, 0.00, -0.00, -1.00, 505.3, 448.7)">5</text><text xml:space="preserve" font-family="HelveticaNeue-Light,Helvetica Neue" font-size="28.0" fill="#FEFFFF" transform="matrix(1.00, 0.00, -0.00, -1.00, 520.9, 448.7)">%</text></g></g></g><g><image xlink:href="../../5438D884-80C0-49E6-A6EB-3A68F8810314/assets/3A166F3FE3B5C96E0CE8348F0424797A.png" width="58.00" height="26.00" transform="matrix(1.00, 0.00, -0.00, -1.00, 616.0, 219.0)"></image><g><clipPath id="clip0x7face6cd5250"><path d="M 615.0 188.0 L 677.0 188.0 L 677.0 227.0 L 615.0 227.0 Z M 615.0 188.0 "></path></clipPath><g clip-path="url(#clip0x7face6cd5250)"><text xml:space="preserve" font-family="HelveticaNeue-Light,Helvetica Neue" font-size="28.0" fill="#FEFFFF" transform="matrix(1.00, 0.00, -0.00, -1.00, 617.5, 198.0)">8</text><text xml:space="preserve" font-family="HelveticaNeue-Light,Helvetica Neue" font-size="28.0" fill="#FEFFFF" transform="matrix(1.00, 0.00, -0.00, -1.00, 633.1, 198.0)">5</text><text xml:space="preserve" font-family="HelveticaNeue-Light,Helvetica Neue" font-size="28.0" fill="#FEFFFF" transform="matrix(1.00, 0.00, -0.00, -1.00, 648.6, 198.0)">%</text></g></g></g><image xlink:href="../../944E28F3-ED2C-4497-9D18-6E5CEBBAF1E8/assets/33599EF14067C6DDCFC593F4BF364EC9.png" width="35.00" height="30.00" transform="matrix(1.00, 0.00, -0.00, -1.01, 798.6, 34.7)" opacity="0.50"></image><image xlink:href="../../944E28F3-ED2C-4497-9D18-6E5CEBBAF1E8/assets/E681C0CCD05D9D5C97169BC7675B8667.png" width="1139.00" height="926.00" transform="matrix(0.02, 0.00, -0.00, -0.02, 803.6, 31.7)"></image><image xlink:href="../../944E28F3-ED2C-4497-9D18-6E5CEBBAF1E8/assets/82C9199E29DD7AAE3491F66522D06974.png" width="175.00" height="28.00" transform="matrix(1.00, 0.00, -0.00, -1.00, 825.0, 33.0)"></image><text xml:space="preserve" font-family="HelveticaNeue-LightItalic,Helvetica Neue" font-style="italic" font-size="25.0" fill="#FEFFFF" transform="matrix(1.00, 0.00, -0.00, -1.00, 828.6, 12.2)">@</text><text xml:space="preserve" font-family="HelveticaNeue-LightItalic,Helvetica Neue" font-style="italic" font-size="25.0" fill="#FEFFFF" transform="matrix(1.00, 0.00, -0.00, -1.00, 848.6, 12.2)">v</text><text xml:space="preserve" font-family="HelveticaNeue-LightItalic,Helvetica Neue" font-style="italic" font-size="25.0" fill="#FEFFFF" transform="matrix(1.00, 0.00, -0.00, -1.00, 860.2, 12.2)">i</text><text xml:space="preserve" font-family="HelveticaNeue-LightItalic,Helvetica Neue" font-style="italic" font-size="25.0" fill="#FEFFFF" transform="matrix(1.00, 0.00, -0.00, -1.00, 864.8, 12.2)">c</text><text xml:space="preserve" font-family="HelveticaNeue-LightItalic,Helvetica Neue" font-style="italic" font-size="25.0" fill="#FEFFFF" transform="matrix(1.00, 0.00, -0.00, -1.00, 877.8, 12.2)">t</text><text xml:space="preserve" font-family="HelveticaNeue-LightItalic,Helvetica Neue" font-style="italic" font-size="25.0" fill="#FEFFFF" transform="matrix(1.00, 0.00, -0.00, -1.00, 885.2, 12.2)">o</text><text xml:space="preserve" font-family="HelveticaNeue-LightItalic,Helvetica Neue" font-style="italic" font-size="25.0" fill="#FEFFFF" transform="matrix(1.00, 0.00, -0.00, -1.00, 899.1, 12.2)">r</text><text xml:space="preserve" font-family="HelveticaNeue-LightItalic,Helvetica Neue" font-style="italic" font-size="25.0" fill="#FEFFFF" transform="matrix(1.00, 0.00, -0.00, -1.00, 907.0, 12.2)">1</text><text xml:space="preserve" font-family="HelveticaNeue-LightItalic,Helvetica Neue" font-style="italic" font-size="25.0" fill="#FEFFFF" transform="matrix(1.00, 0.00, -0.00, -1.00, 920.9, 12.2)">9</text><text xml:space="preserve" font-family="HelveticaNeue-LightItalic,Helvetica Neue" font-style="italic" font-size="25.0" fill="#FEFFFF" transform="matrix(1.00, 0.00, -0.00, -1.00, 934.8, 12.2)">9</text><text xml:space="preserve" font-family="HelveticaNeue-LightItalic,Helvetica Neue" font-style="italic" font-size="25.0" fill="#FEFFFF" transform="matrix(1.00, 0.00, -0.00, -1.00, 948.7, 12.2)">5</text><text xml:space="preserve" font-family="HelveticaNeue-LightItalic,Helvetica Neue" font-style="italic" font-size="25.0" fill="#FEFFFF" transform="matrix(1.00, 0.00, -0.00, -1.00, 962.6, 12.2)">m</text><text xml:space="preserve" font-family="HelveticaNeue-LightItalic,Helvetica Neue" font-style="italic" font-size="25.0" fill="#FEFFFF" transform="matrix(1.00, 0.00, -0.00, -1.00, 983.4, 12.2)">v</text><path d="M -0.4 25.8 L -0.4 5.1 C -0.4 2.3 2.3 0.3 5.1 0.3 L 26.9 0.3 C 29.7 0.3 31.6 2.3 31.6 5.1 L 31.6 25.4 C 31.6 28.2 29.7 30.3 26.9 30.3 L 5.1 30.3 C 2.3 30.3 -0.4 28.6 -0.4 25.8 Z M 0.0 25.4 " fill="none" stroke="#FEFFFE" stroke-width="1.00" transform="matrix(1.00, 0.00, 0.00, -1.00, 20.9, 36.8)"></path><g><clipPath id="clip0x7face6ce0070"><path d="M 20.9 5.8 L 52.8 5.8 L 52.8 36.9 L 20.9 36.9 Z M 20.9 5.8 "></path></clipPath><g clip-path="url(#clip0x7face6ce0070)"><text xml:space="preserve" font-family="HelveticaNeue-Bold,Helvetica Neue" font-weight="bold" font-size="17.0" fill="#FEFFFF" transform="matrix(1.00, 0.00, -0.00, -1.00, 31.0, 15.0)">B</text></g></g></g></svg>