<?xml version="1.0" encoding="UTF-8" standalone="no"?><svg xmlns="http://www.w3.org/2000/svg" xmlns:xlink="http://www.w3.org/1999/xlink" clip-rule="evenodd" stroke-miterlimit="10" viewBox="0 0 99 99"><desc>SVG generated by Keynote</desc><defs></defs><g transform="matrix(1.00, 0.00, -0.00, -1.00, 0.0, 99.0)"><path d="M 83.7 83.2 C 102.5 64.6 102.5 34.4 83.7 15.8 C 64.9 -2.8 34.4 -2.8 15.6 15.8 C -3.2 34.4 -3.2 64.6 15.6 83.2 C 34.4 101.8 64.9 101.8 83.7 83.2 Z M 83.7 83.2 " fill="#82C822"></path><g><clipPath id="clip0x7face5d20590"><path d="M 1.2 1.9 L 98.1 1.9 L 98.1 97.1 L 1.2 97.1 Z M 1.2 1.9 "></path></clipPath><g clip-path="url(#clip0x7face5d20590)"><text xml:space="preserve" font-family="HelveticaNeue-Light,Helvetica Neue" font-size="24.0" fill="#FEFFFF" transform="matrix(1.00, 0.00, -0.00, -1.00, 28.3, 41.2)">N</text><text xml:space="preserve" font-family="HelveticaNeue-Light,Helvetica Neue" font-size="24.0" fill="#FEFFFF" transform="matrix(1.00, 0.00, -0.00, -1.00, 45.2, 41.2)">/</text><text xml:space="preserve" font-family="HelveticaNeue-Light,Helvetica Neue" font-size="24.0" fill="#FEFFFF" transform="matrix(1.00, 0.00, -0.00, -1.00, 53.2, 41.2)">O</text></g></g></g></svg>