<?xml version="1.0" encoding="UTF-8" standalone="no"?><svg xmlns="http://www.w3.org/2000/svg" xmlns:xlink="http://www.w3.org/1999/xlink" clip-rule="evenodd" stroke-miterlimit="10" viewBox="0 0 511 483"><desc>SVG generated by Keynote</desc><defs></defs><g transform="matrix(1.00, 0.00, -0.00, -1.00, 0.0, 483.0)"><g><image xlink:href="191A97D610470B0AB11307F58FE7B839.png" width="508.00" height="479.00" transform="matrix(1.00, 0.00, -0.00, -1.00, 2.0, 481.0)"></image><g><clipPath id="clip0x7face5ae21f0"><path d="M 0.0 0.0 L 511.0 0.0 L 511.0 483.0 L 0.0 483.0 Z M 0.0 0.0 "></path></clipPath><g clip-path="url(#clip0x7face5ae21f0)"><g><g><clipPath id="clip0x7face5c88120"><path d="M -17.0 -17.0 L 527.0 -17.0 L 527.0 500.0 L -17.0 500.0 Z M -17.0 -17.0 "></path></clipPath><g clip-path="url(#clip0x7face5c88120)"><path d="M 257.0 254.0 L 87.1 377.4 C 18.9 283.6 39.7 152.3 133.6 84.1 C 227.4 15.9 358.7 36.7 426.9 130.6 C 495.1 224.4 474.3 355.7 380.4 423.9 C 344.6 450.0 301.3 464.0 257.0 464.0 Z M 257.0 254.0 " fill="#82C822"></path></g></g></g></g></g></g><g><image xlink:href="../../5438D884-80C0-49E6-A6EB-3A68F8810314/assets/3A166F3FE3B5C96E0CE8348F0424797A.png" width="58.00" height="26.00" transform="matrix(1.00, 0.00, -0.00, -1.00, 291.0, 139.0)"></image><g><clipPath id="clip0x7face5c99b60"><path d="M 290.0 108.0 L 352.0 108.0 L 352.0 147.0 L 290.0 147.0 Z M 290.0 108.0 "></path></clipPath><g clip-path="url(#clip0x7face5c99b60)"><text xml:space="preserve" font-family="HelveticaNeue-Light,Helvetica Neue" font-size="28.0" fill="#FEFFFF" transform="matrix(1.00, 0.00, -0.00, -1.00, 292.5, 118.0)">8</text><text xml:space="preserve" font-family="HelveticaNeue-Light,Helvetica Neue" font-size="28.0" fill="#FEFFFF" transform="matrix(1.00, 0.00, -0.00, -1.00, 308.1, 118.0)">5</text><text xml:space="preserve" font-family="HelveticaNeue-Light,Helvetica Neue" font-size="28.0" fill="#FEFFFF" transform="matrix(1.00, 0.00, -0.00, -1.00, 323.6, 118.0)">%</text></g></g></g></g></svg>